HIERARCHY
ROOT root
{
	OFFSET	0	13.1	24.9
	CHANNELS 6  Xposition Yposition Zposition Xrotation Yrotation Zrotation
	JOINT spine_1
	{
		OFFSET	0	9.99999	0
		CHANNELS 3  Xrotation Yrotation Zrotation
		JOINT spine_2
		{
			OFFSET	0	112	-10
			CHANNELS 3  Xrotation Yrotation Zrotation
			JOINT spine_3
			{
				OFFSET	0	206.5	19.3
				CHANNELS 3  Xrotation Yrotation Zrotation
				JOINT spine_4
				{
					OFFSET	0	110.4	14.6
					CHANNELS 3  Xrotation Yrotation Zrotation
					JOINT neck_1
					{
						OFFSET	0	71.8	-50.3
						CHANNELS 3  Xrotation Yrotation Zrotation
						JOINT neck_2
						{
							OFFSET	0	86.2	-25.8
							CHANNELS 3  Xrotation Yrotation Zrotation
							JOINT head_ee
							{
								OFFSET	0	179.8	-8.7
								CHANNELS 3  Xrotation Yrotation Zrotation
								End Site
								{
									OFFSET	1	0	0
								}
							}
						}
					}
					JOINT left_clavicle
					{
						OFFSET	-43.2	22.4	-70.8
						CHANNELS 3  Xrotation Yrotation Zrotation
						JOINT left_shoulder
						{
							OFFSET	-93.9	-5.79999	48.7
							CHANNELS 3  Xrotation Yrotation Zrotation
							JOINT left_elbow
							{
								OFFSET	-291.4	-30.8	15.2
								CHANNELS 3  Xrotation Yrotation Zrotation
								JOINT left_lowarm_twist
								{
									OFFSET	-110.7	-3.89999	13.6
									CHANNELS 3  Xrotation Yrotation Zrotation
									JOINT left_hand
									{
										OFFSET	-110.7	-3.89999	13.6
										CHANNELS 3  Xrotation Yrotation Zrotation
										JOINT left_ee
										{
											OFFSET	-80.8	-5.10001	12.1
											CHANNELS 3  Xrotation Yrotation Zrotation
											End Site
											{
												OFFSET	1	0	0
											}
										}
									}
								}
							}
						}
					}
					JOINT right_clavicle
					{
						OFFSET	43.2	22.4	-70.8
						CHANNELS 3  Xrotation Yrotation Zrotation
						JOINT right_shoulder
						{
							OFFSET	93.9	-5.79999	48.7
							CHANNELS 3  Xrotation Yrotation Zrotation
							JOINT right_elbow
							{
								OFFSET	291.4	-30.8	15.2
								CHANNELS 3  Xrotation Yrotation Zrotation
								JOINT right_lowarm_twist
								{
									OFFSET	110.7	-3.89999	13.6
									CHANNELS 3  Xrotation Yrotation Zrotation
									JOINT right_hand
									{
										OFFSET	110.7	-3.89999	13.6
										CHANNELS 3  Xrotation Yrotation Zrotation
										JOINT right_ee
										{
											OFFSET	80.8	-5.10001	12.1
											CHANNELS 3  Xrotation Yrotation Zrotation
											End Site
											{
												OFFSET	1	0	0
											}
										}
									}
								}
							}
						}
					}
				}
			}
		}
	}
	JOINT left_hip
	{
		OFFSET	-82.8	-127.5	0.300001
		CHANNELS 3  Xrotation Yrotation Zrotation
		JOINT left_knee
		{
			OFFSET	-28.2	-396.7	2.2
			CHANNELS 3  Xrotation Yrotation Zrotation
			JOINT left_ankle
			{
				OFFSET	-11.7	-411.3	35.4
				CHANNELS 3  Xrotation Yrotation Zrotation
				JOINT left_toes
				{
					OFFSET	0	-60	-88.6
					CHANNELS 3  Xrotation Yrotation Zrotation
					JOINT left_foot_ee
					{
						OFFSET	-22.5	-16.5	-42.2
						CHANNELS 3  Xrotation Yrotation Zrotation
						End Site
						{
							OFFSET	1	0	0
						}
					}
				}
			}
		}
	}
	JOINT right_hip
	{
		OFFSET	82.8	-127.5	0.300001
		CHANNELS 3  Xrotation Yrotation Zrotation
		JOINT right_knee
		{
			OFFSET	28.2	-396.7	2.2
			CHANNELS 3  Xrotation Yrotation Zrotation
			JOINT right_ankle
			{
				OFFSET	11.7	-411.3	35.4
				CHANNELS 3  Xrotation Yrotation Zrotation
				JOINT right_toes
				{
					OFFSET	0	-60	-88.6
					CHANNELS 3  Xrotation Yrotation Zrotation
					JOINT right_foot_ee
					{
						OFFSET	22.5	-16.5	-42.2
						CHANNELS 3  Xrotation Yrotation Zrotation
						End Site
						{
							OFFSET	1	0	0
						}
					}
				}
			}
		}
	}
}
MOTION
Frames: 15
Frame Time: 0.02
837.216 700.797 -1209.16 -146.44 -66.022 -157.178 2.25547 0.634789 1.98858 2.25752 0.506991 2.02493 2.27541 0.15303 2.08179 2.26968 0.479822 2.03153 3.39479 1.5095 4.98981 3.47242 -1.66187 5.69353 -0.0 0.0 -0.0 9.5112 6.30825 18.2746 -23.5532 -41.6815 44.0516 2.01618 -44.9593 0.834362 -78.4011 -7.61866 5.29842 -11.3376 32.4146 -57.3013 -0.0 0.0 -0.0 3.87917 -22.6738 -8.0521 -12.2713 4.86009 -72.0379 1.36704 34.1036 -0.419315 67.3424 2.46937 7.74187 0.988525 6.93704 -3.73149 0.0 0.0 0.0 11.3592 -17.2457 17.9671 -16.0989 0.321691 2.44149 30.2939 20.4937 -4.04553 -20.2504 0.0 0.0 -0.0 0.0 -0.0 35.9896 7.43631 10.2706 -3.0858 -0.114696 -0.459626 -17.181 9.61954 -2.71764 31.2938 -0.0 -0.0 0.0 0.0 0.0 
856.956 700.233 -1203.37 -147.872 -64.816 -159.38 2.27378 0.697224 2.22793 2.27637 0.554079 2.26776 2.29823 0.158842 2.32902 2.29104 0.524579 2.27476 4.19575 2.05356 5.00827 4.26736 -0.798752 5.78839 -0.0 0.0 -0.0 8.97652 7.3287 17.174 -24.7144 -42.4697 45.4252 1.78685 -41.5099 0.677199 -77.3001 -7.47842 5.30794 -11.2885 32.4078 -56.7401 -0.0 0.0 -0.0 4.89072 -20.6085 -9.54478 -12.9685 6.71672 -70.4443 1.27251 32.2243 -0.367597 66.3167 2.36739 7.6587 1.17618 7.94002 -4.57537 0.0 0.0 0.0 11.3021 -16.7203 17.9526 -17.2622 0.318183 2.61994 30.4782 22.5322 -4.10596 -20.5664 0.0 0.0 -0.0 0.0 -0.0 35.5273 7.3616 10.2103 -3.20703 -0.118695 -0.477802 -16.6849 9.28284 -2.63327 31.6912 -0.0 -0.0 0.0 0.0 0.0 
868.427 701.922 -1193.36 -146.617 -65.0059 -158.478 2.35396 0.736839 2.36212 2.35687 0.585083 2.40418 2.38127 0.169712 2.46849 2.3732 0.55732 2.41077 5.86145 2.06058 4.1414 5.90714 -0.152066 4.87183 -0.0 0.0 -0.0 8.70114 8.02913 16.6049 -23.4484 -41.5411 47.7405 1.6346 -38.9952 0.5788 -75.4659 -7.24439 5.31778 -10.9284 31.2129 -55.4442 -0.0 0.0 -0.0 5.99984 -21.0394 -11.1725 -10.8006 5.26502 -69.2154 1.21948 31.1347 -0.339748 64.7335 2.21297 7.52681 1.21331 7.29272 -5.10236 0.0 0.0 0.0 11.3871 -17.2535 17.346 -17.9505 0.314403 2.72547 30.5159 21.978 -4.09877 -20.5181 0.0 0.0 -0.0 0.0 -0.0 35.4776 7.97006 10.2397 -3.98462 -0.143428 -0.594575 -16.0348 8.77611 -2.52239 32.9599 -0.0 -0.0 0.0 0.0 0.0 
887.229 706.124 -1185.95 -147.109 -64.2074 -159.662 2.45416 0.721627 2.38093 2.45714 0.568705 2.422 2.48091 0.154862 2.48301 2.47272 0.544947 2.42745 7.03475 2.2739 3.72098 7.06832 0.502719 4.43474 -0.0 0.0 -0.0 8.14417 8.22344 15.5543 -26.1422 -43.1024 48.7861 1.31678 -33.1146 0.391496 -73.2128 -6.95648 5.31951 -10.6199 30.3005 -54.0402 -0.0 0.0 -0.0 7.16658 -19.7467 -13.0332 -9.30328 8.99675 -67.7266 1.17366 30.1724 -0.316384 62.0378 1.95867 7.29267 1.18982 8.42131 -4.46235 0.0 0.0 0.0 12.6404 -15.6778 18.0171 -19.1877 0.304419 2.91503 28.8342 25.3512 -3.97975 -22.276 0.0 0.0 -0.0 0.0 -0.0 35.1454 6.59196 10.0855 -3.84463 -0.139092 -0.573527 -18.0446 6.1561 -2.8045 33.4387 -0.0 -0.0 0.0 0.0 0.0 
903.208 709.787 -1173.36 -146.536 -64.7269 -158.488 2.5043 0.659709 2.39199 2.50734 0.50621 2.4291 2.52845 0.0940593 2.47947 2.5202 0.484348 2.43355 6.43314 3.15194 3.15864 6.45706 2.53104 3.79017 -0.0 0.0 -0.0 7.14891 8.53948 13.7089 -27.0118 -46.8552 49.9336 1.13651 -29.3782 0.297935 -71.1559 -6.69362 5.31114 -10.1376 28.9208 -51.7287 -0.0 0.0 -0.0 7.67998 -16.8775 -14.1001 -8.95266 9.72302 -66.9238 0.999688 26.3448 -0.233972 60.9975 1.86353 7.19917 0.991118 5.04531 -4.54694 0.0 0.0 0.0 13.1452 -15.0658 16.4992 -22.4369 0.258737 3.41144 25.6164 24.5817 -3.57574 -22.2996 0.0 0.0 -0.0 0.0 -0.0 35.0492 5.20007 10.1361 -5.6879 -0.192047 -0.851442 -15.6404 9.04124 -2.46324 35.2191 -0.0 -0.0 0.0 0.0 0.0 
913.148 707.788 -1161.53 -145.539 -66.1056 -157.294 2.56749 0.519036 2.46768 2.57081 0.36101 2.49568 2.586 -0.0578204 2.52098 2.5773 0.34092 2.4985 6.0346 3.82156 1.10896 6.06861 5.51496 1.43568 -0.0 0.0 -0.0 6.89257 10.1894 13.1812 -27.17 -48.2531 50.4898 0.969734 -25.6581 0.220841 -69.9822 -6.54375 5.3021 -8.79988 24.2621 -46.4008 -0.0 0.0 -0.0 7.22607 -20.8213 -13.0281 -8.23346 11.5172 -68.4655 0.96188 25.4768 -0.217451 58.6954 1.65917 6.98629 1.38261 6.13321 -6.7421 0.0 0.0 0.0 16.3557 -12.5071 15.1146 -30.5011 0.0245458 4.62587 22.4611 21.2753 -3.12866 -21.0208 0.0 0.0 -0.0 0.0 -0.0 35.1355 5.45204 10.4664 -9.55251 -0.273898 -1.43873 -11.4193 10.5277 -1.80642 37.0954 -0.0 -0.0 0.0 0.0 0.0 
932.513 712.078 -1149.77 -146.356 -65.4202 -157.958 2.37993 0.56888 2.56427 2.38349 0.404612 2.59525 2.40146 -0.0397591 2.62628 2.39203 0.375369 2.59964 5.37555 3.87616 0.305315 5.42232 6.35784 0.528291 -0.0 0.0 -0.0 6.40344 12.2926 12.2424 -28.7835 -50.9083 50.5381 0.783288 -21.2071 0.146641 -69.5235 -6.48522 5.29773 -8.24599 22.9012 -43.2966 -0.0 0.0 -0.0 7.43635 -21.8201 -13.2464 -7.89364 13.349 -68.5153 0.91595 24.4051 -0.198082 56.5331 1.47518 6.77906 1.19416 3.31642 -6.64221 0.0 0.0 0.0 18.882 -9.84436 14.4916 -35.6038 -0.211029 5.3731 16.7634 23.6607 -2.41824 -21.317 0.0 0.0 -0.0 0.0 -0.0 34.6354 4.43278 9.78406 -10.3077 -0.285255 -1.55405 -10.7522 10.0566 -1.69461 37.9043 -0.0 -0.0 0.0 0.0 0.0 
952.214 717.261 -1135.14 -148.234 -66.4554 -159.463 2.38971 0.417544 2.52137 2.39321 0.25631 2.54281 2.40414 -0.177093 2.54955 2.39514 0.22765 2.54554 5.21523 5.19724 1.16169 5.28248 7.87975 1.57598 -0.0 0.0 -0.0 5.96249 14.2554 11.4254 -31.612 -53.4733 49.4891 0.622006 -17.1254 0.0936563 -69.2351 -6.44844 5.29474 -7.00875 19.4013 -37.0031 -0.0 0.0 -0.0 7.4953 -23.0685 -13.2006 -8.07827 16.9972 -69.3801 0.900965 24.0515 -0.191933 55.7096 1.4072 6.69835 0.914853 1.91535 -5.33528 0.0 0.0 0.0 21.2986 -6.5943 13.1131 -40.981 -0.530356 6.13506 5.12501 21.657 -0.76084 -23.9279 0.0 0.0 -0.0 0.0 -0.0 34.2286 3.37052 9.85151 -14.7176 -0.321151 -2.22957 -9.45366 11.553 -1.50102 40.1507 -0.0 -0.0 0.0 0.0 0.0 
966.093 718.343 -1124.05 -149.054 -66.5905 -160.417 2.21738 0.615591 2.53168 2.22083 0.4533 2.56569 2.24098 0.00597247 2.6054 2.23175 0.417233 2.5718 3.87163 6.17766 0.0711319 3.99337 10.6341 0.450714 -0.0 0.0 -0.0 5.98896 16.3141 11.3916 -31.0221 -54.1893 50.84 0.506969 -14.0978 0.0626873 -67.6726 -6.24942 5.2753 -6.0895 17.4101 -31.8102 -0.0 0.0 -0.0 6.98657 -24.0683 -12.3671 -7.32621 17.8058 -70.4054 0.917592 24.4438 -0.198761 54.7821 1.33203 6.6063 0.929068 0.658837 -5.94783 0.0 0.0 0.0 22.8711 -4.4141 12.074 -43.5506 -0.707969 6.48804 3.53405 22.3116 -0.528323 -22.492 0.0 0.0 -0.0 0.0 -0.0 33.2647 2.36232 9.48012 -15.2042 -0.321924 -2.30421 -8.67709 11.8268 -1.37851 40.1625 -0.0 -0.0 0.0 0.0 0.0 
980.314 719.567 -1116.36 -149.614 -66.4711 -160.619 2.13662 0.487052 2.42728 2.13984 0.331659 2.45333 2.15392 -0.0984354 2.47367 2.1455 0.29335 2.4582 5.47597 6.62156 0.122687 5.62869 11.2056 0.426929 -0.0 0.0 -0.0 5.50785 18.4063 10.5488 -34.3987 -57.807 49.5094 0.355971 -10.0008 0.0311459 -68.1572 -6.3111 5.28192 -5.20375 15.2253 -27.1019 -0.0 0.0 -0.0 7.15672 -24.8114 -12.53 -13.2835 22.7683 -67.38 1.06871 27.8964 -0.265442 55.3865 1.38085 6.66643 1.31161 -0.148569 -8.85539 0.0 0.0 0.0 21.5432 -4.9841 11.312 -42.1292 -0.607756 6.29375 1.62538 22.8515 -0.244709 -24.5421 0.0 0.0 -0.0 0.0 -0.0 32.3289 3.44321 8.88698 -16.4883 -0.32092 -2.50123 -5.5231 13.1764 -0.880489 40.1426 -0.0 -0.0 0.0 0.0 0.0 
1001.01 722.71 -1110.25 -153.156 -65.7642 -164.122 2.03253 0.536139 2.42276 2.03571 0.380934 2.45194 2.05202 -0.0540339 2.48075 2.04359 0.338311 2.45818 5.60353 7.19636 0.194858 5.78318 12.1121 0.523075 -0.0 0.0 -0.0 5.27678 22.0627 10.0617 -36.8185 -59.4869 49.3944 0.259828 -7.33444 0.016653 -67.6527 -6.24689 5.27502 -4.57173 14.124 -23.4488 -0.0 0.0 -0.0 7.31316 -24.2043 -12.8152 -17.2089 24.7293 -64.9962 1.19274 30.5756 -0.326035 55.8242 1.41659 6.70965 1.56124 -0.863212 -10.8333 0.0 0.0 0.0 21.2684 -4.89555 11.7049 -42.2392 -0.615333 6.30886 -1.89783 23.5695 0.288889 -26.3619 0.0 0.0 -0.0 0.0 -0.0 30.7505 4.00921 9.02315 -18.3597 -0.311554 -2.78819 -3.90244 13.285 -0.620494 40.1189 -0.0 -0.0 0.0 0.0 0.0 
1018.49 724.13 -1103.26 -153.637 -66.202 -164.445 1.99524 0.542264 2.32475 1.99816 0.393278 2.35452 2.01438 -0.0263833 2.38697 2.0066 0.350819 2.36121 7.97845 7.4706 -0.505549 8.23192 12.9414 -0.461124 -0.0 0.0 -0.0 4.80795 23.7362 9.33521 -38.5639 -60.0893 49.6648 0.286193 -8.06931 0.0201866 -66.771 -6.13481 5.26161 -3.0093 12.5708 -13.9422 -0.0 0.0 -0.0 7.045 -24.7756 -12.378 -19.124 24.9754 -65.0988 1.36436 34.0516 -0.417818 56.0883 1.43832 6.73559 1.67037 1.00825 -10.8241 0.0 0.0 0.0 23.5622 -9.51819 14.7615 -45.4011 -0.845634 6.73723 -2.87475 24.7463 0.440967 -26.5168 0.0 0.0 -0.0 0.0 -0.0 29.51 5.94981 8.31952 -19.8933 -0.296894 -3.02303 -2.39095 8.19902 -0.367286 40.115 -0.0 -0.0 0.0 0.0 0.0 
1028.85 724.948 -1099.03 -154.827 -65.7152 -165.577 1.87435 0.601517 2.23808 1.87702 0.457921 2.27179 1.89537 0.0470271 2.31699 1.88812 0.412265 2.28052 9.00619 8.00037 -1.49666 9.37708 14.6035 -1.73712 -0.0 0.0 -0.0 5.00148 23.5608 9.61127 -36.2893 -58.8382 52.2628 0.248177 -7.00892 0.0151986 -65.4209 -5.96358 5.23771 -2.04877 11.2634 -8.40251 -0.0 0.0 -0.0 6.98203 -23.9826 -12.3691 -19.8661 26.9271 -64.8311 1.4191 35.1045 -0.448885 55.2133 1.36679 6.64924 1.85092 1.98736 -11.6607 0.0 0.0 0.0 27.7157 -11.3864 16.364 -48.0873 -1.0597 7.09088 -3.8349 25.9252 0.592974 -28.1575 0.0 0.0 -0.0 0.0 -0.0 28.9828 7.53759 7.91654 -20.9883 -0.282582 -3.19044 -1.9706 7.18741 -0.300871 40.1085 -0.0 -0.0 0.0 0.0 0.0 
1044.9 727.485 -1091.79 -153.501 -66.0505 -164.136 1.76108 0.632015 2.27095 1.76382 0.486267 2.30654 1.78371 0.0641781 2.35634 1.77623 0.435411 2.31667 7.51421 8.38434 -2.0438 7.93321 15.9025 -2.2499 -0.0 0.0 -0.0 4.599 23.6116 9.04805 -37.6261 -57.6629 53.7057 0.263713 -7.44289 0.0171527 -64.0076 -5.78495 5.20836 -1.12113 9.67977 -3.18397 -0.0 0.0 -0.0 6.63826 -23.7873 -11.9001 -19.6187 27.6325 -65.7825 1.49255 36.4755 -0.49184 54.2077 1.28624 6.5487 1.89741 2.90199 -11.6045 0.0 0.0 0.0 31.9146 -14.0715 17.8138 -50.2156 -1.241 7.36385 -4.74006 25.6447 0.732997 -29.8767 0.0 0.0 -0.0 0.0 -0.0 28.1529 8.48795 7.71625 -21.8729 -0.268685 -3.32547 -1.87792 4.6698 -0.283437 40.0648 -0.0 -0.0 0.0 0.0 0.0 
1056.17 727.875 -1089.46 -153.66 -65.8387 -164.468 1.83585 0.630417 2.11365 1.8382 0.494675 2.14946 1.857 0.103485 2.20319 1.85051 0.450058 2.15923 6.68408 8.60931 -2.57049 7.14605 16.8387 -2.77945 -0.0 0.0 -0.0 4.38467 23.5757 8.75063 -37.5685 -57.0885 54.8847 0.312778 -8.80761 0.0240879 -63.0131 -5.65967 5.18506 -0.454196 8.54037 0.614211 -0.0 0.0 -0.0 6.57317 -23.2884 -11.8499 -18.2285 28.1896 -67.1323 1.56681 37.8141 -0.536682 53.5498 1.2345 6.48216 1.92417 3.71229 -11.4533 0.0 0.0 0.0 34.557 -16.7193 18.6878 -51.2453 -1.33234 7.49348 -5.25239 25.4743 0.812197 -31.0437 0.0 0.0 -0.0 0.0 -0.0 27.8132 9.12462 7.83362 -22.698 -0.253846 -3.4512 -1.70015 2.68584 -0.254592 40.0854 -0.0 -0.0 0.0 0.0 0.0 
